<svg xmlns="http://www.w3.org/2000/svg" width="302" height="62.324" viewBox="0 0 302 62.324">
  <g id="Group_7" data-name="Group 7" transform="translate(-41.46 -181.914)">
    <path id="Path_8" data-name="Path 8" d="M86.173,193.334l-10.707,1.652L83.2,201c-3.965-1.322-13.548-2.247-17.381-1.983-5.618.4-14.012,7.138-13.549,15.069.6,9.253,4.693,13.284,11.566,12.821,3.9-.264,13.483-1.652,13.087-7.732-.132-2.776-11.236,2.379-11.236,2.379l3.106-5.42-6.213.2s7.27-7.336,16.457-5.684c2.577.463,7.666,3.239,6.873,10.442-.463,4.494-2.049,13.086-20.422,14.341-16.457,1.124-23.2-8.856-23.992-20.818-.726-12.028,10.047-24.124,22.6-24.982A53.485,53.485,0,0,1,86.173,193.334Z" transform="translate(0 -2.365)" fill="#fff"/>
    <path id="Path_9" data-name="Path 9" d="M119.087,206.7l5.816-7.469-1.322,34.7-5.155-5.881-4.957,6.344-.2-34.962ZM124.9,192.95a5.734,5.734,0,1,1-5.75-5.287A5.553,5.553,0,0,1,124.9,192.95Z" transform="translate(-22.275 -1.783)" fill="#fff"/>
    <path id="Path_10" data-name="Path 10" d="M182.878,202.513s0,25.908-.661,31.988c-.991,8.659-5.354,16.127-22.14,16.127a25.565,25.565,0,0,1-21.282-11.7l6.94,2.511-.86-7.27s5.486,7.27,14.21,7.27c8.658,0,12.954-1.785,13.814-10.244-2.908,1.652-7.535,3.3-14.606,3.437-14.21.4-20.687-6.742-20.687-15.6,0-11.566,13.285-14.276,22.339-13.945a27.7,27.7,0,0,1,13.482,4.627c0-4.23-.132-7.2-.132-7.2l4.891,5.089Zm-24.388,24.52a55.034,55.034,0,0,0,14.8-1.917c.132-2.908.132-6.014.2-8.922a48.962,48.962,0,0,0-14.672-2.643c-4.56,0-11.037,2.71-11.037,5.816C147.783,222.407,151.683,227.033,158.49,227.033Z" transform="translate(-29.823 -6.389)" fill="#fff"/>
    <path id="Path_11" data-name="Path 11" d="M251.446,236.094l-5.287,1.587,2.974,4.759s-9.253-.728-10.31-3.9a18,18,0,0,1-.661-3.04,20.469,20.469,0,0,1-10.574,3.7c-14.541.86-19.3-2.973-18.7-11.368.4-6.279,8.525-10.31,18.9-10.31a22.086,22.086,0,0,1,9.649,2.379c-.33-6.94-2.445-8.79-8.13-8.79-6.212,0-15.465,4.56-15.465,4.56l2.577-6.146-8.394,1.52s9.055-8.723,21.744-8.723,17.646,7.667,17.646,19.7c0,8.856-1.718,10.905-.4,11.764A29.3,29.3,0,0,0,251.446,236.094ZM237.7,229.75c-.066-1.388-.132-2.776-.132-4.1a36.842,36.842,0,0,0-8.526-.661c-4.23.2-8.129,1.123-8.592,3.238-.4,1.851.2,3.9,7.666,4.1A20.252,20.252,0,0,0,237.7,229.75Z" transform="translate(-51.665 -6.33)" fill="#fff"/>
    <path id="Path_12" data-name="Path 12" d="M319.529,205.91c-.265,6.807-8.922,14.54-18.638,14.54a28.322,28.322,0,0,1-13.88-4.1l-.462,18.175-4.957-7.27-5.354,7.469V189.85l6.015,6.081,5.419-6.544-.2,6.411c2.314-2.776,6.477-5.948,13.615-5.948C313.911,189.85,319.727,199.1,319.529,205.91Zm-10.046-1.255c-.066-3.635-4.957-6.345-8.592-6.213-7.469.33-11.632,2.842-13.549,4.494l-.2,7.8a47.36,47.36,0,0,0,13.549,1.322C307.368,211.925,309.615,208.289,309.483,204.655Z" transform="translate(-72.824 -2.318)" fill="#fff"/>
    <path id="Path_13" data-name="Path 13" d="M380.528,224.706l-29.477-.132c0,5.353,7.27,7.865,13.549,7.865,4.56,0,10.112-4.56,10.112-4.56l-1.718,6.477,6.808-.4s-4.627,6.279-15.929,6.279c-16.522,0-22.867-5.817-22.867-17.647,0-9.253,8.857-17.778,22.207-17.778C374.117,204.813,380.528,213.536,380.528,224.706ZM368.9,218.758s-.595-5.816-7.2-5.816c-6.808,0-7.865,5.42-7.865,5.42Z" transform="translate(-92.913 -7.103)" fill="#fff"/>
    <path id="Path_14" data-name="Path 14" d="M439.276,196.851l-4.692,3.7,4.692,5.155-19.166-.2c-.066,1.388-.066,2.578-.066,3.437-.132,5.618-1.058,14.739,4.362,15.069,5.75.4,5.089-9.782,5.089-9.782l3.3,4.825,4.1-4.56c0,7.667-1.917,18.308-13.351,18.308-10.244,0-12.425-8-12.887-14.143-.2-2.182-.132-7.4,0-13.285l-10.443-.132,4.428-4.56-4.1-3.569,10.376-.066c.265-8.063.6-15.135.6-15.135l4.3,5.684,5.089-5.485s-.264,7.534-.529,14.87Z" transform="translate(-111.28)" fill="#fff"/>
    <path id="Path_15" data-name="Path 15" d="M473.685,231.349a4.066,4.066,0,1,1-4.031-3.966A3.991,3.991,0,0,1,473.685,231.349Zm-3.172-35.161,4.494-6.345-1.718,34.434-3.437-4.758-3.7,5.221.463-35.161Z" transform="translate(-131.547 -2.378)" fill="#fff"/>
  </g>
</svg>
