<svg xmlns="http://www.w3.org/2000/svg" width="43" height="34.131" viewBox="0 0 43 34.131">
  <g id="Group_5" data-name="Group 5" transform="translate(-157.46 -228.539)">
    <path id="Path_16" data-name="Path 16" d="M190.649,231.356l-7.947,1.226,5.739,4.464a48.7,48.7,0,0,0-12.9-1.472c-4.17.294-10.4,5.3-10.057,11.185.442,6.867,3.483,9.861,8.585,9.517,2.895-.2,10.008-1.226,9.714-5.739-.1-2.06-8.34,1.766-8.34,1.766l2.306-4.023-4.611.147s5.4-5.445,12.216-4.219c1.913.343,5.69,2.4,5.1,7.751-.344,3.336-1.521,9.713-15.159,10.645-12.216.834-17.22-6.574-17.809-15.453-.539-8.928,7.457-17.906,16.778-18.544A39.7,39.7,0,0,1,190.649,231.356Z" transform="translate(0 0)" fill="#fff"/>
    <path id="Path_17" data-name="Path 17" d="M233.772,259.584a3.018,3.018,0,1,1-2.992-2.943A2.962,2.962,0,0,1,233.772,259.584Zm-2.355-26.1,3.336-4.71-1.275,25.559-2.551-3.533-2.747,3.876.344-26.1Z" transform="translate(-34.293 -0.02)" fill="#fff"/>
  </g>
</svg>
